<mxfile host="app.diagrams.net" modified="2023-06-15T04:13:21.039Z" agent="Mozilla/5.0 (Windows NT 10.0; Win64; x64) AppleWebKit/537.36 (KHTML, like Gecko) Chrome/114.0.0.0 Safari/537.36" etag="PvlvucZS1UWSLUKV47R7" version="21.4.0" type="device">
  <diagram name="ERD " id="NBf0WMkDMmraNKO9oaIX">
    <mxGraphModel dx="392" dy="506" grid="1" gridSize="10" guides="1" tooltips="1" connect="1" arrows="1" fold="1" page="1" pageScale="1" pageWidth="850" pageHeight="1100" math="0" shadow="0">
      <root>
        <mxCell id="0" />
        <mxCell id="1" parent="0" />
        <mxCell id="yu9C6eEq5IBqknotgn81-15" style="edgeStyle=orthogonalEdgeStyle;rounded=0;orthogonalLoop=1;jettySize=auto;html=1;entryX=0.5;entryY=0;entryDx=0;entryDy=0;" edge="1" parent="1" source="yu9C6eEq5IBqknotgn81-1" target="yu9C6eEq5IBqknotgn81-13">
          <mxGeometry relative="1" as="geometry">
            <Array as="points">
              <mxPoint x="260" y="200" />
              <mxPoint x="260" y="200" />
            </Array>
          </mxGeometry>
        </mxCell>
        <mxCell id="yu9C6eEq5IBqknotgn81-27" style="edgeStyle=orthogonalEdgeStyle;rounded=0;orthogonalLoop=1;jettySize=auto;html=1;entryX=0;entryY=0.5;entryDx=0;entryDy=0;" edge="1" parent="1" source="yu9C6eEq5IBqknotgn81-1" target="yu9C6eEq5IBqknotgn81-26">
          <mxGeometry relative="1" as="geometry" />
        </mxCell>
        <mxCell id="yu9C6eEq5IBqknotgn81-1" value="Admin" style="rounded=0;whiteSpace=wrap;html=1;" vertex="1" parent="1">
          <mxGeometry x="160" y="120" width="120" height="60" as="geometry" />
        </mxCell>
        <mxCell id="yu9C6eEq5IBqknotgn81-2" value="Karyawan" style="rounded=0;whiteSpace=wrap;html=1;" vertex="1" parent="1">
          <mxGeometry x="480" y="290" width="120" height="60" as="geometry" />
        </mxCell>
        <mxCell id="yu9C6eEq5IBqknotgn81-3" value="CEO" style="rounded=0;whiteSpace=wrap;html=1;" vertex="1" parent="1">
          <mxGeometry x="760" y="120" width="120" height="60" as="geometry" />
        </mxCell>
        <mxCell id="yu9C6eEq5IBqknotgn81-4" value="jk" style="ellipse;whiteSpace=wrap;html=1;" vertex="1" parent="1">
          <mxGeometry x="10" y="180" width="90" height="40" as="geometry" />
        </mxCell>
        <mxCell id="yu9C6eEq5IBqknotgn81-6" value="&lt;u&gt;id_admin&lt;/u&gt;" style="ellipse;whiteSpace=wrap;html=1;" vertex="1" parent="1">
          <mxGeometry x="20" y="110" width="90" height="40" as="geometry" />
        </mxCell>
        <mxCell id="yu9C6eEq5IBqknotgn81-8" value="no_telp" style="ellipse;whiteSpace=wrap;html=1;" vertex="1" parent="1">
          <mxGeometry x="70" y="50" width="90" height="40" as="geometry" />
        </mxCell>
        <mxCell id="yu9C6eEq5IBqknotgn81-9" value="nama" style="ellipse;whiteSpace=wrap;html=1;" vertex="1" parent="1">
          <mxGeometry x="180" y="50" width="90" height="40" as="geometry" />
        </mxCell>
        <mxCell id="yu9C6eEq5IBqknotgn81-10" value="alamat" style="ellipse;whiteSpace=wrap;html=1;" vertex="1" parent="1">
          <mxGeometry x="290" y="50" width="90" height="40" as="geometry" />
        </mxCell>
        <mxCell id="yu9C6eEq5IBqknotgn81-14" style="edgeStyle=orthogonalEdgeStyle;rounded=0;orthogonalLoop=1;jettySize=auto;html=1;entryX=0.167;entryY=0.967;entryDx=0;entryDy=0;entryPerimeter=0;" edge="1" parent="1" source="yu9C6eEq5IBqknotgn81-12" target="yu9C6eEq5IBqknotgn81-1">
          <mxGeometry relative="1" as="geometry" />
        </mxCell>
        <mxCell id="yu9C6eEq5IBqknotgn81-12" value="kabarMasuk" style="rhombus;whiteSpace=wrap;html=1;" vertex="1" parent="1">
          <mxGeometry x="140" y="410" width="80" height="80" as="geometry" />
        </mxCell>
        <mxCell id="yu9C6eEq5IBqknotgn81-18" style="edgeStyle=orthogonalEdgeStyle;rounded=0;orthogonalLoop=1;jettySize=auto;html=1;entryX=0;entryY=0.5;entryDx=0;entryDy=0;" edge="1" parent="1" source="yu9C6eEq5IBqknotgn81-13" target="yu9C6eEq5IBqknotgn81-2">
          <mxGeometry relative="1" as="geometry" />
        </mxCell>
        <mxCell id="yu9C6eEq5IBqknotgn81-13" value="aturJadwal" style="rhombus;whiteSpace=wrap;html=1;" vertex="1" parent="1">
          <mxGeometry x="220" y="280" width="80" height="80" as="geometry" />
        </mxCell>
        <mxCell id="yu9C6eEq5IBqknotgn81-16" value="keterangan" style="ellipse;whiteSpace=wrap;html=1;" vertex="1" parent="1">
          <mxGeometry x="210" y="500" width="90" height="40" as="geometry" />
        </mxCell>
        <mxCell id="yu9C6eEq5IBqknotgn81-17" value="&lt;u&gt;id_karyawan&lt;/u&gt;" style="ellipse;whiteSpace=wrap;html=1;" vertex="1" parent="1">
          <mxGeometry x="455" y="390" width="90" height="40" as="geometry" />
        </mxCell>
        <mxCell id="yu9C6eEq5IBqknotgn81-20" value="laporan" style="ellipse;whiteSpace=wrap;html=1;" vertex="1" parent="1">
          <mxGeometry x="280" y="340" width="90" height="40" as="geometry" />
        </mxCell>
        <mxCell id="yu9C6eEq5IBqknotgn81-21" value="jk" style="ellipse;whiteSpace=wrap;html=1;" vertex="1" parent="1">
          <mxGeometry x="550" y="390" width="90" height="40" as="geometry" />
        </mxCell>
        <mxCell id="yu9C6eEq5IBqknotgn81-23" value="no_telp" style="ellipse;whiteSpace=wrap;html=1;" vertex="1" parent="1">
          <mxGeometry x="640" y="360" width="90" height="40" as="geometry" />
        </mxCell>
        <mxCell id="yu9C6eEq5IBqknotgn81-24" value="nama" style="ellipse;whiteSpace=wrap;html=1;" vertex="1" parent="1">
          <mxGeometry x="640" y="310" width="90" height="40" as="geometry" />
        </mxCell>
        <mxCell id="yu9C6eEq5IBqknotgn81-25" value="alamat" style="ellipse;whiteSpace=wrap;html=1;" vertex="1" parent="1">
          <mxGeometry x="640" y="260" width="90" height="40" as="geometry" />
        </mxCell>
        <mxCell id="yu9C6eEq5IBqknotgn81-31" style="edgeStyle=orthogonalEdgeStyle;rounded=0;orthogonalLoop=1;jettySize=auto;html=1;entryX=0;entryY=0.5;entryDx=0;entryDy=0;" edge="1" parent="1" source="yu9C6eEq5IBqknotgn81-26" target="yu9C6eEq5IBqknotgn81-3">
          <mxGeometry relative="1" as="geometry" />
        </mxCell>
        <mxCell id="yu9C6eEq5IBqknotgn81-26" value="kirimData" style="rhombus;whiteSpace=wrap;html=1;" vertex="1" parent="1">
          <mxGeometry x="460" y="110" width="80" height="80" as="geometry" />
        </mxCell>
        <mxCell id="yu9C6eEq5IBqknotgn81-28" value="id_karyawan" style="ellipse;whiteSpace=wrap;html=1;" vertex="1" parent="1">
          <mxGeometry x="380" y="180" width="90" height="40" as="geometry" />
        </mxCell>
        <mxCell id="yu9C6eEq5IBqknotgn81-29" value="laporan" style="ellipse;whiteSpace=wrap;html=1;" vertex="1" parent="1">
          <mxGeometry x="455" y="40" width="90" height="40" as="geometry" />
        </mxCell>
        <mxCell id="yu9C6eEq5IBqknotgn81-30" value="keterangan" style="ellipse;whiteSpace=wrap;html=1;" vertex="1" parent="1">
          <mxGeometry x="540" y="180" width="90" height="40" as="geometry" />
        </mxCell>
        <mxCell id="yu9C6eEq5IBqknotgn81-32" value="&lt;u&gt;id_ceo&lt;/u&gt;" style="ellipse;whiteSpace=wrap;html=1;" vertex="1" parent="1">
          <mxGeometry x="800" y="220" width="90" height="40" as="geometry" />
        </mxCell>
        <mxCell id="yu9C6eEq5IBqknotgn81-33" value="jk" style="ellipse;whiteSpace=wrap;html=1;" vertex="1" parent="1">
          <mxGeometry x="910" y="170" width="90" height="40" as="geometry" />
        </mxCell>
        <mxCell id="yu9C6eEq5IBqknotgn81-34" value="no_telp" style="ellipse;whiteSpace=wrap;html=1;" vertex="1" parent="1">
          <mxGeometry x="910" y="110" width="90" height="40" as="geometry" />
        </mxCell>
        <mxCell id="yu9C6eEq5IBqknotgn81-35" value="nama" style="ellipse;whiteSpace=wrap;html=1;" vertex="1" parent="1">
          <mxGeometry x="850" y="40" width="90" height="40" as="geometry" />
        </mxCell>
        <mxCell id="yu9C6eEq5IBqknotgn81-36" value="alamat" style="ellipse;whiteSpace=wrap;html=1;" vertex="1" parent="1">
          <mxGeometry x="720" y="40" width="90" height="40" as="geometry" />
        </mxCell>
        <mxCell id="yu9C6eEq5IBqknotgn81-37" value="" style="endArrow=none;html=1;rounded=0;exitX=1;exitY=0.5;exitDx=0;exitDy=0;entryX=0;entryY=0.5;entryDx=0;entryDy=0;" edge="1" parent="1" source="yu9C6eEq5IBqknotgn81-4" target="yu9C6eEq5IBqknotgn81-1">
          <mxGeometry width="50" height="50" relative="1" as="geometry">
            <mxPoint x="110" y="280" as="sourcePoint" />
            <mxPoint x="160" y="230" as="targetPoint" />
          </mxGeometry>
        </mxCell>
        <mxCell id="yu9C6eEq5IBqknotgn81-39" value="" style="endArrow=none;html=1;rounded=0;exitX=1;exitY=0.5;exitDx=0;exitDy=0;entryX=0;entryY=0.25;entryDx=0;entryDy=0;" edge="1" parent="1" source="yu9C6eEq5IBqknotgn81-6" target="yu9C6eEq5IBqknotgn81-1">
          <mxGeometry width="50" height="50" relative="1" as="geometry">
            <mxPoint x="100" y="160" as="sourcePoint" />
            <mxPoint x="160" y="110" as="targetPoint" />
          </mxGeometry>
        </mxCell>
        <mxCell id="yu9C6eEq5IBqknotgn81-40" value="" style="endArrow=none;html=1;rounded=0;exitX=0.756;exitY=1.025;exitDx=0;exitDy=0;exitPerimeter=0;entryX=0.1;entryY=0;entryDx=0;entryDy=0;entryPerimeter=0;" edge="1" parent="1" source="yu9C6eEq5IBqknotgn81-8" target="yu9C6eEq5IBqknotgn81-1">
          <mxGeometry width="50" height="50" relative="1" as="geometry">
            <mxPoint x="110" y="210" as="sourcePoint" />
            <mxPoint x="170" y="100" as="targetPoint" />
          </mxGeometry>
        </mxCell>
        <mxCell id="yu9C6eEq5IBqknotgn81-41" value="" style="endArrow=none;html=1;rounded=0;exitX=0.5;exitY=1;exitDx=0;exitDy=0;entryX=0.5;entryY=0;entryDx=0;entryDy=0;" edge="1" parent="1" source="yu9C6eEq5IBqknotgn81-9" target="yu9C6eEq5IBqknotgn81-1">
          <mxGeometry width="50" height="50" relative="1" as="geometry">
            <mxPoint x="120" y="220" as="sourcePoint" />
            <mxPoint x="180" y="170" as="targetPoint" />
          </mxGeometry>
        </mxCell>
        <mxCell id="yu9C6eEq5IBqknotgn81-42" value="" style="endArrow=none;html=1;rounded=0;exitX=0.825;exitY=-0.017;exitDx=0;exitDy=0;entryX=0.289;entryY=0.95;entryDx=0;entryDy=0;exitPerimeter=0;entryPerimeter=0;" edge="1" parent="1" source="yu9C6eEq5IBqknotgn81-1" target="yu9C6eEq5IBqknotgn81-10">
          <mxGeometry width="50" height="50" relative="1" as="geometry">
            <mxPoint x="130" y="230" as="sourcePoint" />
            <mxPoint x="190" y="180" as="targetPoint" />
          </mxGeometry>
        </mxCell>
        <mxCell id="yu9C6eEq5IBqknotgn81-43" value="" style="endArrow=none;html=1;rounded=0;exitX=1;exitY=1;exitDx=0;exitDy=0;entryX=0.311;entryY=0;entryDx=0;entryDy=0;entryPerimeter=0;" edge="1" parent="1" source="yu9C6eEq5IBqknotgn81-12" target="yu9C6eEq5IBqknotgn81-16">
          <mxGeometry width="50" height="50" relative="1" as="geometry">
            <mxPoint x="200" y="460" as="sourcePoint" />
            <mxPoint x="260" y="410" as="targetPoint" />
          </mxGeometry>
        </mxCell>
        <mxCell id="yu9C6eEq5IBqknotgn81-44" value="" style="endArrow=none;html=1;rounded=0;exitX=1;exitY=1;exitDx=0;exitDy=0;entryX=0.244;entryY=0.125;entryDx=0;entryDy=0;entryPerimeter=0;" edge="1" parent="1" source="yu9C6eEq5IBqknotgn81-13" target="yu9C6eEq5IBqknotgn81-20">
          <mxGeometry width="50" height="50" relative="1" as="geometry">
            <mxPoint x="270" y="480" as="sourcePoint" />
            <mxPoint x="330" y="430" as="targetPoint" />
          </mxGeometry>
        </mxCell>
        <mxCell id="yu9C6eEq5IBqknotgn81-45" value="" style="endArrow=none;html=1;rounded=0;exitX=0.5;exitY=0;exitDx=0;exitDy=0;entryX=0.25;entryY=1;entryDx=0;entryDy=0;" edge="1" parent="1" source="yu9C6eEq5IBqknotgn81-17" target="yu9C6eEq5IBqknotgn81-2">
          <mxGeometry width="50" height="50" relative="1" as="geometry">
            <mxPoint x="360" y="430" as="sourcePoint" />
            <mxPoint x="420" y="380" as="targetPoint" />
          </mxGeometry>
        </mxCell>
        <mxCell id="yu9C6eEq5IBqknotgn81-46" value="" style="endArrow=none;html=1;rounded=0;entryX=0.7;entryY=1.017;entryDx=0;entryDy=0;entryPerimeter=0;" edge="1" parent="1" target="yu9C6eEq5IBqknotgn81-2">
          <mxGeometry width="50" height="50" relative="1" as="geometry">
            <mxPoint x="580" y="390" as="sourcePoint" />
            <mxPoint x="520" y="360" as="targetPoint" />
          </mxGeometry>
        </mxCell>
        <mxCell id="yu9C6eEq5IBqknotgn81-47" value="" style="endArrow=none;html=1;rounded=0;exitX=0;exitY=0.5;exitDx=0;exitDy=0;entryX=1;entryY=0.75;entryDx=0;entryDy=0;" edge="1" parent="1" source="yu9C6eEq5IBqknotgn81-23" target="yu9C6eEq5IBqknotgn81-2">
          <mxGeometry width="50" height="50" relative="1" as="geometry">
            <mxPoint x="505" y="410" as="sourcePoint" />
            <mxPoint x="530" y="370" as="targetPoint" />
          </mxGeometry>
        </mxCell>
        <mxCell id="yu9C6eEq5IBqknotgn81-48" value="" style="endArrow=none;html=1;rounded=0;exitX=0;exitY=0.5;exitDx=0;exitDy=0;entryX=1;entryY=0.5;entryDx=0;entryDy=0;" edge="1" parent="1" source="yu9C6eEq5IBqknotgn81-24" target="yu9C6eEq5IBqknotgn81-2">
          <mxGeometry width="50" height="50" relative="1" as="geometry">
            <mxPoint x="515" y="420" as="sourcePoint" />
            <mxPoint x="540" y="380" as="targetPoint" />
          </mxGeometry>
        </mxCell>
        <mxCell id="yu9C6eEq5IBqknotgn81-49" value="" style="endArrow=none;html=1;rounded=0;exitX=0;exitY=0.5;exitDx=0;exitDy=0;entryX=1;entryY=0.25;entryDx=0;entryDy=0;" edge="1" parent="1" source="yu9C6eEq5IBqknotgn81-25" target="yu9C6eEq5IBqknotgn81-2">
          <mxGeometry width="50" height="50" relative="1" as="geometry">
            <mxPoint x="525" y="430" as="sourcePoint" />
            <mxPoint x="550" y="390" as="targetPoint" />
          </mxGeometry>
        </mxCell>
        <mxCell id="yu9C6eEq5IBqknotgn81-50" value="" style="endArrow=none;html=1;rounded=0;exitX=0.5;exitY=0;exitDx=0;exitDy=0;entryX=0;entryY=1;entryDx=0;entryDy=0;" edge="1" parent="1" source="yu9C6eEq5IBqknotgn81-28" target="yu9C6eEq5IBqknotgn81-26">
          <mxGeometry width="50" height="50" relative="1" as="geometry">
            <mxPoint x="535" y="440" as="sourcePoint" />
            <mxPoint x="560" y="400" as="targetPoint" />
          </mxGeometry>
        </mxCell>
        <mxCell id="yu9C6eEq5IBqknotgn81-51" value="" style="endArrow=none;html=1;rounded=0;exitX=0.5;exitY=0;exitDx=0;exitDy=0;entryX=1;entryY=1;entryDx=0;entryDy=0;" edge="1" parent="1" source="yu9C6eEq5IBqknotgn81-30" target="yu9C6eEq5IBqknotgn81-26">
          <mxGeometry width="50" height="50" relative="1" as="geometry">
            <mxPoint x="435" y="190" as="sourcePoint" />
            <mxPoint x="490" y="180" as="targetPoint" />
          </mxGeometry>
        </mxCell>
        <mxCell id="yu9C6eEq5IBqknotgn81-52" value="" style="endArrow=none;html=1;rounded=0;exitX=0.5;exitY=0;exitDx=0;exitDy=0;entryX=0.5;entryY=1;entryDx=0;entryDy=0;" edge="1" parent="1" source="yu9C6eEq5IBqknotgn81-26" target="yu9C6eEq5IBqknotgn81-29">
          <mxGeometry width="50" height="50" relative="1" as="geometry">
            <mxPoint x="445" y="200" as="sourcePoint" />
            <mxPoint x="500" y="190" as="targetPoint" />
          </mxGeometry>
        </mxCell>
        <mxCell id="yu9C6eEq5IBqknotgn81-55" value="" style="endArrow=none;html=1;rounded=0;exitX=0.25;exitY=0;exitDx=0;exitDy=0;entryX=0.5;entryY=1;entryDx=0;entryDy=0;" edge="1" parent="1" source="yu9C6eEq5IBqknotgn81-3" target="yu9C6eEq5IBqknotgn81-36">
          <mxGeometry width="50" height="50" relative="1" as="geometry">
            <mxPoint x="720" y="125" as="sourcePoint" />
            <mxPoint x="680" y="80" as="targetPoint" />
          </mxGeometry>
        </mxCell>
        <mxCell id="yu9C6eEq5IBqknotgn81-56" value="" style="endArrow=none;html=1;rounded=0;exitX=0.5;exitY=0;exitDx=0;exitDy=0;entryX=0.5;entryY=1;entryDx=0;entryDy=0;" edge="1" parent="1" source="yu9C6eEq5IBqknotgn81-3" target="yu9C6eEq5IBqknotgn81-35">
          <mxGeometry width="50" height="50" relative="1" as="geometry">
            <mxPoint x="800" y="130" as="sourcePoint" />
            <mxPoint x="775" y="90" as="targetPoint" />
          </mxGeometry>
        </mxCell>
        <mxCell id="yu9C6eEq5IBqknotgn81-57" value="" style="endArrow=none;html=1;rounded=0;exitX=1;exitY=0.25;exitDx=0;exitDy=0;entryX=0;entryY=0.5;entryDx=0;entryDy=0;" edge="1" parent="1" source="yu9C6eEq5IBqknotgn81-3" target="yu9C6eEq5IBqknotgn81-34">
          <mxGeometry width="50" height="50" relative="1" as="geometry">
            <mxPoint x="810" y="140" as="sourcePoint" />
            <mxPoint x="785" y="100" as="targetPoint" />
          </mxGeometry>
        </mxCell>
        <mxCell id="yu9C6eEq5IBqknotgn81-58" value="" style="endArrow=none;html=1;rounded=0;exitX=1;exitY=0.75;exitDx=0;exitDy=0;entryX=0;entryY=0.5;entryDx=0;entryDy=0;" edge="1" parent="1" source="yu9C6eEq5IBqknotgn81-3" target="yu9C6eEq5IBqknotgn81-33">
          <mxGeometry width="50" height="50" relative="1" as="geometry">
            <mxPoint x="820" y="150" as="sourcePoint" />
            <mxPoint x="795" y="110" as="targetPoint" />
          </mxGeometry>
        </mxCell>
        <mxCell id="yu9C6eEq5IBqknotgn81-59" value="" style="endArrow=none;html=1;rounded=0;exitX=0.5;exitY=0;exitDx=0;exitDy=0;entryX=0.5;entryY=1;entryDx=0;entryDy=0;" edge="1" parent="1" source="yu9C6eEq5IBqknotgn81-32" target="yu9C6eEq5IBqknotgn81-3">
          <mxGeometry width="50" height="50" relative="1" as="geometry">
            <mxPoint x="830" y="160" as="sourcePoint" />
            <mxPoint x="820" y="190" as="targetPoint" />
          </mxGeometry>
        </mxCell>
        <mxCell id="yu9C6eEq5IBqknotgn81-60" value="N" style="text;html=1;align=center;verticalAlign=middle;resizable=0;points=[];autosize=1;strokeColor=none;fillColor=none;" vertex="1" parent="1">
          <mxGeometry x="155" y="388" width="30" height="30" as="geometry" />
        </mxCell>
        <mxCell id="yu9C6eEq5IBqknotgn81-62" value="" style="endArrow=classic;html=1;rounded=0;exitX=0;exitY=0.75;exitDx=0;exitDy=0;entryX=1;entryY=0.5;entryDx=0;entryDy=0;" edge="1" parent="1" source="yu9C6eEq5IBqknotgn81-2" target="yu9C6eEq5IBqknotgn81-12">
          <mxGeometry width="50" height="50" relative="1" as="geometry">
            <mxPoint x="360" y="480" as="sourcePoint" />
            <mxPoint x="410" y="430" as="targetPoint" />
          </mxGeometry>
        </mxCell>
        <mxCell id="yu9C6eEq5IBqknotgn81-63" value="N" style="text;html=1;align=center;verticalAlign=middle;resizable=0;points=[];autosize=1;strokeColor=none;fillColor=none;" vertex="1" parent="1">
          <mxGeometry x="220" y="410" width="30" height="30" as="geometry" />
        </mxCell>
        <mxCell id="yu9C6eEq5IBqknotgn81-64" value="N" style="text;html=1;align=center;verticalAlign=middle;resizable=0;points=[];autosize=1;strokeColor=none;fillColor=none;" vertex="1" parent="1">
          <mxGeometry x="290" y="290" width="30" height="30" as="geometry" />
        </mxCell>
        <mxCell id="yu9C6eEq5IBqknotgn81-65" value="N" style="text;html=1;align=center;verticalAlign=middle;resizable=0;points=[];autosize=1;strokeColor=none;fillColor=none;" vertex="1" parent="1">
          <mxGeometry x="230" y="250" width="30" height="30" as="geometry" />
        </mxCell>
        <mxCell id="yu9C6eEq5IBqknotgn81-66" value="N" style="text;html=1;align=center;verticalAlign=middle;resizable=0;points=[];autosize=1;strokeColor=none;fillColor=none;" vertex="1" parent="1">
          <mxGeometry x="430" y="120" width="30" height="30" as="geometry" />
        </mxCell>
        <mxCell id="yu9C6eEq5IBqknotgn81-67" value="1" style="text;html=1;align=center;verticalAlign=middle;resizable=0;points=[];autosize=1;strokeColor=none;fillColor=none;" vertex="1" parent="1">
          <mxGeometry x="534" y="119" width="30" height="30" as="geometry" />
        </mxCell>
      </root>
    </mxGraphModel>
  </diagram>
</mxfile>
